<?xml version="1.0" encoding="UTF-8" standalone="no"?>
<!DOCTYPE svg PUBLIC "-//W3C//DTD SVG 1.1//EN"
 "http://www.w3.org/Graphics/SVG/1.1/DTD/svg11.dtd">
<!-- Generated by graphviz version 12.1.1 (20240910.0053)
 -->
<!-- Title: spi_slave_fsm Pages: 1 -->
<svg width="452pt" height="276pt"
 viewBox="0.00 0.00 452.49 275.75" xmlns="http://www.w3.org/2000/svg" xmlns:xlink="http://www.w3.org/1999/xlink">
<g id="graph0" class="graph" transform="scale(1 1) rotate(0) translate(4 271.75)">
<title>spi_slave_fsm</title>
<polygon fill="white" stroke="none" points="-4,4 -4,-271.75 448.49,-271.75 448.49,4 -4,4"/>
<!-- Idle -->
<g id="node1" class="node">
<title>Idle</title>
<ellipse fill="none" stroke="black" stroke-width="2" cx="111.72" cy="-213.75" rx="54" ry="54"/>
<text text-anchor="middle" x="111.72" y="-208.32" font-family="Arial" font-size="14.00">Idle</text>
</g>
<!-- Idle&#45;&gt;Idle -->
<g id="edge4" class="edge">
<title>Idle&#45;&gt;Idle</title>
<path fill="none" stroke="black" d="M164.78,-228.2C175.8,-226.68 183.72,-221.86 183.72,-213.75 183.72,-208.68 180.62,-204.9 175.61,-202.4"/>
<polygon fill="black" stroke="black" points="176.81,-199.1 166.23,-199.72 174.88,-205.83 176.81,-199.1"/>
<text text-anchor="middle" x="226.47" y="-208.32" font-family="Arial" font-size="14.00">in_spi_cs = &#39;1&#39;</text>
</g>
<!-- Reading -->
<g id="node2" class="node">
<title>Reading</title>
<ellipse fill="none" stroke="black" stroke-width="2" cx="111.72" cy="-54" rx="54" ry="54"/>
<text text-anchor="middle" x="111.72" y="-48.58" font-family="Arial" font-size="14.00">Reading</text>
</g>
<!-- Idle&#45;&gt;Reading -->
<g id="edge1" class="edge">
<title>Idle&#45;&gt;Reading</title>
<path fill="none" stroke="black" d="M61.18,-192.62C39.53,-181.17 16.46,-164.5 4.22,-141.75 -10.75,-113.93 18.16,-91.77 49.74,-76.81"/>
<polygon fill="black" stroke="black" points="50.96,-80.1 58.66,-72.82 48.1,-73.71 50.96,-80.1"/>
<text text-anchor="middle" x="46.97" y="-128.45" font-family="Arial" font-size="14.00">in_spi_cs = &#39;0&#39;</text>
</g>
<!-- Reading&#45;&gt;Idle -->
<g id="edge3" class="edge">
<title>Reading&#45;&gt;Idle</title>
<path fill="none" stroke="black" d="M111.72,-108.87C111.72,-121.37 111.72,-134.8 111.72,-147.72"/>
<polygon fill="black" stroke="black" points="108.22,-147.39 111.72,-157.39 115.22,-147.39 108.22,-147.39"/>
<text text-anchor="middle" x="230.59" y="-128.45" font-family="Arial" font-size="14.00">rising_edge(in_spi_clk) and position = 0</text>
</g>
<!-- Reading&#45;&gt;Idle -->
<g id="edge5" class="edge">
<title>Reading&#45;&gt;Idle</title>
<path fill="none" stroke="black" d="M166.57,-56.15C251.4,-59.97 399.82,-75.94 350.72,-141.75 329.81,-169.77 240.11,-190.7 176.77,-202.33"/>
<polygon fill="black" stroke="black" points="176.38,-198.85 167.16,-204.06 177.62,-205.74 176.38,-198.85"/>
<text text-anchor="middle" x="401.74" y="-128.45" font-family="Arial" font-size="14.00">in_spi_cs = &#39;1&#39;</text>
</g>
<!-- Reading&#45;&gt;Reading -->
<g id="edge2" class="edge">
<title>Reading&#45;&gt;Reading</title>
<path fill="none" stroke="black" d="M164.78,-68.45C175.8,-66.93 183.72,-62.11 183.72,-54 183.72,-48.93 180.62,-45.15 175.61,-42.65"/>
<polygon fill="black" stroke="black" points="176.81,-39.35 166.23,-39.97 174.88,-46.08 176.81,-39.35"/>
<text text-anchor="middle" x="302.59" y="-48.58" font-family="Arial" font-size="14.00">rising_edge(in_spi_clk) and position &gt; 0</text>
</g>
</g>
</svg>
